<svg width="1923" height="1923" viewBox="0 0 1923 1923" fill="none" xmlns="http://www.w3.org/2000/svg">
  <path d="M961.5 1921.5C1491.69 1921.5 1921.5 1491.69 1921.5 961.5C1921.5 431.307 1491.69 1.5 961.5 1.5C431.307 1.5 1.5 431.307 1.5 961.5C1.5 1491.69 431.307 1921.5 961.5 1921.5Z" fill="#2F323A"/>
  <path d="M1647.78 353.82H837.04C826.508 353.82 817.97 362.358 817.97 372.89V842.78C817.97 853.312 826.508 861.85 837.04 861.85H1647.78C1658.31 861.85 1666.85 853.312 1666.85 842.78V372.89C1666.85 362.358 1658.31 353.82 1647.78 353.82Z" fill="#45545A"/>
  <path d="M1633.39 443.31H1363.92V474.72H1633.39V443.31Z" fill="#89E4E4"/>
  <path d="M1633.39 495.21H1363.92V526.62H1633.39V495.21Z" fill="#9699CB"/>
  <path d="M1633.39 547.12H1363.92V578.53H1633.39V547.12Z" fill="#FFF0DB"/>
  <path d="M1633.39 599.02H1363.92V630.43H1633.39V599.02Z" fill="#FCCCCC"/>
  <path d="M1633.39 650.93H1363.92V682.34H1633.39V650.93Z" fill="#4B87B9"/>
  <path d="M1068.2 390.27L1068.6 609.54" stroke="#666666" stroke-width="4" stroke-miterlimit="10"/>
  <path d="M880.92 548.56L1069.09 608.85" stroke="#666666" stroke-width="4" stroke-miterlimit="10"/>
  <path d="M960.35 759.94L1070.1 607.46" stroke="#666666" stroke-width="4" stroke-miterlimit="10"/>
  <path d="M1183.09 764.41L1068.49 607.29" stroke="#666666" stroke-width="4" stroke-miterlimit="10"/>
  <path d="M1249.7 549.34L1068.6 609.54" stroke="#666666" stroke-width="4" stroke-miterlimit="10"/>
  <path d="M1164.74 739.22L1113.25 594.33" stroke="#9699CB" stroke-width="3" stroke-miterlimit="10"/>
  <path d="M1164.74 739.22L1054.04 629.78" stroke="#9699CB" stroke-width="3" stroke-miterlimit="10"/>
  <path d="M1068.22 397.23L1113.25 594.33" stroke="#9699CB" stroke-width="3" stroke-miterlimit="10"/>
  <path d="M1054.04 629.78L964.01 575.2" stroke="#9699CB" stroke-width="3" stroke-miterlimit="10"/>
  <path d="M1068.22 397.23L964.01 575.2" stroke="#9699CB" stroke-width="3" stroke-miterlimit="10"/>
  <path d="M964.17 577.45C965.573 577.45 966.71 576.313 966.71 574.91C966.71 573.507 965.573 572.37 964.17 572.37C962.767 572.37 961.63 573.507 961.63 574.91C961.63 576.313 962.767 577.45 964.17 577.45Z" fill="#9699CB"/>
  <path d="M1054.04 632.31C1055.44 632.31 1056.57 631.177 1056.57 629.78C1056.57 628.383 1055.44 627.25 1054.04 627.25C1052.64 627.25 1051.51 628.383 1051.51 629.78C1051.51 631.177 1052.64 632.31 1054.04 632.31Z" fill="#9699CB"/>
  <path d="M1068.22 400.3C1069.61 400.3 1070.73 399.176 1070.73 397.79C1070.73 396.404 1069.61 395.28 1068.22 395.28C1066.83 395.28 1065.71 396.404 1065.71 397.79C1065.71 399.176 1066.83 400.3 1068.22 400.3Z" fill="#9699CB"/>
  <path d="M1164.23 741.06C1165.63 741.06 1166.76 739.927 1166.76 738.53C1166.76 737.133 1165.63 736 1164.23 736C1162.83 736 1161.7 737.133 1161.7 738.53C1161.7 739.927 1162.83 741.06 1164.23 741.06Z" fill="#9699CB"/>
  <path d="M1179.23 761.52C1180.62 761.52 1181.74 760.396 1181.74 759.01C1181.74 757.624 1180.62 756.5 1179.23 756.5C1177.84 756.5 1176.72 757.624 1176.72 759.01C1176.72 760.396 1177.84 761.52 1179.23 761.52Z" fill="#FFF0DB"/>
  <path d="M989.27 721.47C990.667 721.47 991.8 720.337 991.8 718.94C991.8 717.543 990.667 716.41 989.27 716.41C987.873 716.41 986.74 717.543 986.74 718.94C986.74 720.337 987.873 721.47 989.27 721.47Z" fill="#FCCCCC"/>
  <path d="M1119.65 680.22C1121.07 680.22 1122.22 679.069 1122.22 677.65C1122.22 676.231 1121.07 675.08 1119.65 675.08C1118.23 675.08 1117.08 676.231 1117.08 677.65C1117.08 679.069 1118.23 680.22 1119.65 680.22Z" fill="#FCCCCC"/>
  <path d="M887.27 553.17C888.689 553.17 889.84 552.019 889.84 550.6C889.84 549.181 888.689 548.03 887.27 548.03C885.851 548.03 884.7 549.181 884.7 550.6C884.7 552.019 885.851 553.17 887.27 553.17Z" fill="#FCCCCC"/>
  <path d="M1068.9 563.62C1070.43 563.62 1071.67 562.38 1071.67 560.85C1071.67 559.32 1070.43 558.08 1068.9 558.08C1067.37 558.08 1066.13 559.32 1066.13 560.85C1066.13 562.38 1067.37 563.62 1068.9 563.62Z" fill="#FCCCCC"/>
  <path d="M1128.07 592C1129.48 592 1130.62 590.858 1130.62 589.45C1130.62 588.042 1129.48 586.9 1128.07 586.9C1126.66 586.9 1125.52 588.042 1125.52 589.45C1125.52 590.858 1126.66 592 1128.07 592Z" fill="#FCCCCC"/>
  <path d="M1148.58 585.4C1150.08 585.4 1151.29 584.187 1151.29 582.69C1151.29 581.193 1150.08 579.98 1148.58 579.98C1147.08 579.98 1145.87 581.193 1145.87 582.69C1145.87 584.187 1147.08 585.4 1148.58 585.4Z" fill="#FFF0DB"/>
  <path d="M1044.25 603.47C1045.66 603.47 1046.8 602.328 1046.8 600.92C1046.8 599.512 1045.66 598.37 1044.25 598.37C1042.84 598.37 1041.7 599.512 1041.7 600.92C1041.7 602.328 1042.84 603.47 1044.25 603.47Z" fill="#FFF0DB"/>
  <path d="M1068.66 506.42C1070.04 506.42 1071.15 505.305 1071.15 503.93C1071.15 502.555 1070.04 501.44 1068.66 501.44C1067.28 501.44 1066.17 502.555 1066.17 503.93C1066.17 505.305 1067.28 506.42 1068.66 506.42Z" fill="#FFF0DB"/>
  <path d="M1009.02 694.8C1010.39 694.8 1011.5 693.69 1011.5 692.32C1011.5 690.95 1010.39 689.84 1009.02 689.84C1007.65 689.84 1006.54 690.95 1006.54 692.32C1006.54 693.69 1007.65 694.8 1009.02 694.8Z" fill="#FFF0DB"/>
  <path d="M1113.25 596.87C1114.65 596.87 1115.79 595.733 1115.79 594.33C1115.79 592.927 1114.65 591.79 1113.25 591.79C1111.85 591.79 1110.71 592.927 1110.71 594.33C1110.71 595.733 1111.85 596.87 1113.25 596.87Z" fill="#9699CB"/>
  <path d="M1186.72 572.83C1188.22 572.83 1189.44 571.612 1189.44 570.11C1189.44 568.608 1188.22 567.39 1186.72 567.39C1185.22 567.39 1184 568.608 1184 570.11C1184 571.612 1185.22 572.83 1186.72 572.83Z" fill="#4B87B9"/>
  <path d="M1068.48 462.05C1069.85 462.05 1070.96 460.94 1070.96 459.57C1070.96 458.2 1069.85 457.09 1068.48 457.09C1067.11 457.09 1066 458.2 1066 459.57C1066 460.94 1067.11 462.05 1068.48 462.05Z" fill="#4B87B9"/>
  <path d="M1020.29 595.75C1021.68 595.75 1022.8 594.626 1022.8 593.24C1022.8 591.854 1021.68 590.73 1020.29 590.73C1018.9 590.73 1017.78 591.854 1017.78 593.24C1017.78 594.626 1018.9 595.75 1020.29 595.75Z" fill="#4B87B9"/>
  <path d="M964.08 757.68C965.45 757.68 966.56 756.57 966.56 755.2C966.56 753.83 965.45 752.72 964.08 752.72C962.71 752.72 961.6 753.83 961.6 755.2C961.6 756.57 962.71 757.68 964.08 757.68Z" fill="#4B87B9"/>
  <path d="M917.41 562.82C918.824 562.82 919.97 561.674 919.97 560.26C919.97 558.846 918.824 557.7 917.41 557.7C915.996 557.7 914.85 558.846 914.85 560.26C914.85 561.674 915.996 562.82 917.41 562.82Z" fill="#89E4E4"/>
  <path d="M1243.37 553.94C1244.76 553.94 1245.88 552.816 1245.88 551.43C1245.88 550.044 1244.76 548.92 1243.37 548.92C1241.98 548.92 1240.86 550.044 1240.86 551.43C1240.86 552.816 1241.98 553.94 1243.37 553.94Z" fill="#89E4E4"/>
  <path d="M1041.01 650.39C1042.4 650.39 1043.53 649.262 1043.53 647.87C1043.53 646.478 1042.4 645.35 1041.01 645.35C1039.62 645.35 1038.49 646.478 1038.49 647.87C1038.49 649.262 1039.62 650.39 1041.01 650.39Z" fill="#89E4E4"/>
  <path d="M1101.92 655.36C1103.3 655.36 1104.42 654.241 1104.42 652.86C1104.42 651.479 1103.3 650.36 1101.92 650.36C1100.54 650.36 1099.42 651.479 1099.42 652.86C1099.42 654.241 1100.54 655.36 1101.92 655.36Z" fill="#89E4E4"/>
  <path d="M1068.77 533.43C1070.15 533.43 1071.26 532.315 1071.26 530.94C1071.26 529.565 1070.15 528.45 1068.77 528.45C1067.39 528.45 1066.28 529.565 1066.28 530.94C1066.28 532.315 1067.39 533.43 1068.77 533.43Z" fill="#89E4E4"/>
  <path d="M1135.59 701.39C1136.98 701.39 1138.1 700.266 1138.1 698.88C1138.1 697.494 1136.98 696.37 1135.59 696.37C1134.2 696.37 1133.08 697.494 1133.08 698.88C1133.08 700.266 1134.2 701.39 1135.59 701.39Z" fill="#4B87B9"/>
  <path d="M963.67 755.33L1135.59 698.88" stroke="#4B87B9" stroke-width="3" stroke-miterlimit="10"/>
  <path d="M1135.73 699.62L1187.53 569.84" stroke="#4B87B9" stroke-width="3" stroke-miterlimit="10"/>
  <path d="M1068.6 459.23L1020.29 593.24" stroke="#4B87B9" stroke-width="3" stroke-miterlimit="10"/>
  <path d="M916.7 560.03L1041.01 647.87" stroke="#89E4E4" stroke-width="3" stroke-miterlimit="10"/>
  <path d="M1068.77 530.94L916.7 560.03" stroke="#89E4E4" stroke-width="3" stroke-miterlimit="10"/>
  <path d="M1068.6 503.55L1148.58 582.69" stroke="#FFF0DB" stroke-width="3" stroke-miterlimit="10"/>
  <path d="M1020.29 593.24L963.67 755.33" stroke="#4B87B9" stroke-width="3" stroke-miterlimit="10"/>
  <path d="M1101.64 653.07L1243.88 551.26" stroke="#89E4E4" stroke-width="3" stroke-miterlimit="10"/>
  <path d="M1068.77 530.94L1243.88 551.26" stroke="#89E4E4" stroke-width="3" stroke-miterlimit="10"/>
  <path d="M1179.23 759.01L1148.58 582.69" stroke="#FFF0DB" stroke-width="3" stroke-miterlimit="10"/>
  <path d="M1068.6 459.23L1187.53 569.84" stroke="#4B87B9" stroke-width="3" stroke-miterlimit="10"/>
  <path d="M1041.01 647.87L1101.64 653.07" stroke="#89E4E4" stroke-width="3" stroke-miterlimit="10"/>
  <path d="M886.54 549.37L989.36 719.63" stroke="#FCCCCC" stroke-width="3" stroke-miterlimit="10"/>
  <path d="M1068.6 503.55L1044.45 600.98" stroke="#FFF0DB" stroke-width="3" stroke-miterlimit="10"/>
  <path d="M886.06 550.2L1070.64 561.4" stroke="#FCCCCC" stroke-width="3" stroke-miterlimit="10"/>
  <path d="M1009.02 692.32L1179.23 759.01" stroke="#FFF0DB" stroke-width="3" stroke-miterlimit="10"/>
  <path d="M1119.65 677.65L1128.07 589.45" stroke="#FCCCCC" stroke-width="3" stroke-miterlimit="10"/>
  <path d="M990.04 718.7L1119.65 677.65" stroke="#FCCCCC" stroke-width="3" stroke-miterlimit="10"/>
  <path d="M1044.18 600.78L1008.76 692.12" stroke="#FFF0DB" stroke-width="3" stroke-miterlimit="10"/>
  <path d="M1128.07 589.45L1068.9 560.85" stroke="#FCCCCC" stroke-width="3" stroke-miterlimit="10"/>
  <path opacity="0.4" d="M1128.07 589.5C1125.26 618.9 1122.46 648.3 1119.65 677.7L988.5 718.86L885.16 549.73L1068.32 559.64L1128.07 589.5Z" fill="#FF7BAC"/>
  <path opacity="0.4" d="M1102.38 652.5L1041.01 647.91L917.41 560.16L1068.41 530.54L1242.13 552.06L1102.38 652.5Z" fill="#89E4E4"/>
  <path opacity="0.4" d="M1136.5 697.61L964.23 754.41L1020.32 593.06C1036.32 548.813 1052.32 504.57 1068.32 460.33L1187.5 569.84C1170.53 612.427 1153.53 655.017 1136.5 697.61Z" fill="#4B87B9"/>
  <path opacity="0.4" d="M1178.86 758.18L1009.28 692.31L1044.6 601.37L1068.83 503.77L1147.83 582.44L1178.86 758.18Z" fill="#FFF0DB"/>
  <path opacity="0.4" d="M1163.94 737.79L1054.04 629.79L964.04 575.21L1068.35 397.84C1083.33 463.34 1098.31 528.84 1113.28 594.34L1163.94 737.79Z" fill="#9699CB"/>
  <path d="M309.97 614.36H190.58V1510.36H309.97V614.36Z" fill="#4B87B9"/>
  <path d="M443.25 945.15H323.86V1510.36H443.25V945.15Z" fill="#FCCCCC"/>
  <path d="M843.06 461.48H723.67V1510.36H843.06V461.48Z" fill="#FFF0DB"/>
  <path d="M709.79 697.76H590.4V1510.36H709.79V697.76Z" fill="#9699CB"/>
  <path d="M576.52 172.39H457.13V1510.36H576.52V172.39Z" fill="#89E4E4"/>
  <path d="M1231.18 1252.19L947.12 1592.09C883.224 1540.29 835.079 1471.67 808.12 1393.96L1231.18 1252.19Z" fill="#FCCCCC"/>
  <path d="M1231.18 1252.19L808.13 1393.96C792.435 1348.34 784.449 1300.43 784.5 1252.19C784.5 1250.53 784.5 1248.87 784.5 1247.19C785.039 1193.87 795.416 1141.1 815.11 1091.55C848.92 1006.47 908.8 934.31 985.11 884.55L1231.18 1252.19Z" fill="#4B87B9"/>
  <path d="M1550.25 1560.42C1471.47 1639.43 1366.19 1686.4 1254.78 1692.25C1143.36 1698.1 1033.74 1662.41 947.12 1592.09L1231.18 1252.19L1550.25 1560.42Z" fill="#FFF0DB"/>
  <path d="M1677.9 1252.19C1677.9 1372.19 1629.23 1480.97 1550.25 1560.42L1231.18 1252.19H1677.9Z" fill="#9699CB"/>
  <path d="M1700.34 1242.5H1235.83C1151.76 1116.95 1067.69 991.387 983.62 865.82C982.4 863.98 981.16 862.13 979.92 860.29C1056.04 810.694 1144.98 784.379 1235.83 784.57C1492.38 784.58 1700.34 989.6 1700.34 1242.5Z" fill="#89E4E4"/>
</svg>